<?xml version="1.0" standalone="no"?><svg xmlns="http://www.w3.org/2000/svg" viewBox="0 0 1440 320"><path fill="#5000ca" fill-opacity="0.6" d="M0,256L34.3,218.7C68.6,181,137,107,206,90.7C274.3,75,343,117,411,144C480,171,549,181,617,186.7C685.7,192,754,192,823,170.7C891.4,149,960,107,1029,96C1097.1,85,1166,107,1234,117.3C1302.9,128,1371,128,1406,128L1440,128L1440,320L1405.7,320C1371.4,320,1303,320,1234,320C1165.7,320,1097,320,1029,320C960,320,891,320,823,320C754.3,320,686,320,617,320C548.6,320,480,320,411,320C342.9,320,274,320,206,320C137.1,320,69,320,34,320L0,320Z"></path></svg>